<svg id="eWSLi8rbaTl1" xmlns="http://www.w3.org/2000/svg" xmlns:xlink="http://www.w3.org/1999/xlink" viewBox="0 0 700 400" shape-rendering="geometricPrecision" text-rendering="geometricPrecision" width="700" height="400" style="background-color:#263238"><style><![CDATA[#eWSLi8rbaTl2 {animation: eWSLi8rbaTl2_s_do 52000ms linear infinite normal forwards}@keyframes eWSLi8rbaTl2_s_do { 0% {stroke-dashoffset: 0} 100% {stroke-dashoffset: 300}} #eWSLi8rbaTl3 {animation: eWSLi8rbaTl3_s_do 52000ms linear infinite normal forwards}@keyframes eWSLi8rbaTl3_s_do { 0% {stroke-dashoffset: 0} 100% {stroke-dashoffset: 360}} #eWSLi8rbaTl4 {animation: eWSLi8rbaTl4_s_do 52000ms linear infinite normal forwards}@keyframes eWSLi8rbaTl4_s_do { 0% {stroke-dashoffset: 0} 100% {stroke-dashoffset: 500}} #eWSLi8rbaTl5 {animation: eWSLi8rbaTl5_s_do 52000ms linear infinite normal forwards}@keyframes eWSLi8rbaTl5_s_do { 0% {stroke-dashoffset: 0} 100% {stroke-dashoffset: 360}}]]></style><defs><linearGradient id="eWSLi8rbaTl2-stroke" x1="0" y1="0.5" x2="1" y2="0.5" spreadMethod="pad" gradientUnits="objectBoundingBox" gradientTransform="translate(0 0)"><stop id="eWSLi8rbaTl2-stroke-0" offset="0%" stop-color="#0036a4"/><stop id="eWSLi8rbaTl2-stroke-1" offset="49%" stop-color="#6a2364"/><stop id="eWSLi8rbaTl2-stroke-2" offset="100%" stop-color="#4cceff"/></linearGradient><linearGradient id="eWSLi8rbaTl3-stroke" x1="0" y1="0.5" x2="1" y2="0.5" spreadMethod="pad" gradientUnits="objectBoundingBox" gradientTransform="translate(0 0)"><stop id="eWSLi8rbaTl3-stroke-0" offset="0%" stop-color="#fff"/><stop id="eWSLi8rbaTl3-stroke-1" offset="48%" stop-color="#359fad"/><stop id="eWSLi8rbaTl3-stroke-2" offset="100%" stop-color="#fff"/></linearGradient><linearGradient id="eWSLi8rbaTl4-stroke" x1="0" y1="0.5" x2="1" y2="0.5" spreadMethod="pad" gradientUnits="objectBoundingBox" gradientTransform="translate(0 0)"><stop id="eWSLi8rbaTl4-stroke-0" offset="0%" stop-color="#ae3bd4"/><stop id="eWSLi8rbaTl4-stroke-1" offset="48%" stop-color="#2bc4c3"/><stop id="eWSLi8rbaTl4-stroke-2" offset="100%" stop-color="#ff00f6"/></linearGradient><radialGradient id="eWSLi8rbaTl5-stroke" cx="0" cy="0" r="0.5" spreadMethod="pad" gradientUnits="objectBoundingBox" gradientTransform="translate(0.5 0.5)"><stop id="eWSLi8rbaTl5-stroke-0" offset="0%" stop-color="rgba(34,56,133,0.52)"/><stop id="eWSLi8rbaTl5-stroke-1" offset="100%" stop-color="rgba(255,176,195,0.77)"/></radialGradient></defs><path id="eWSLi8rbaTl3" d="M548.836753,44.624992c26.916212-47.425639,99.388234-12.558714,103.049491,22.466344c3.251243,31.102646-70.55417,52.435347-66.826483,90.839065.879618,9.062024,10.329678,16.183054,16.706615,23.222019c22.659712,25.01212,36.15069,53.012162,25.059934,83.326063-6.256675,17.101086-71.228523,57.873574-88.173827,41.663027-16.765407-16.038445,14.01447-20.909212,28.772513-18.441016c44.400398,7.42573,39.199862,48.178358,11.137747,65.568042-18.861882,11.68843-40.657433,17.627774-64.970182,18.441016-12.759071.426775-28.762073.008452-38.05397-7.513002-14.587089-11.807732-11.245004-34.497301-15.778476-49.176038-8.945896-28.965543-56.379513-49.881526-94.670845-41.663027-50.048296,10.741896-52.094214,78.458176-20.419205,101.76707c15.367315,11.308446,43.972474,9.148501,51.048007-7.513002c2.032339-4.785771-3.04294-10.393113-5.568868-14.343009-15.043565-23.524194-33.730117-41.728469-71.467212-43.712031-33.131218-1.741464-71.203717,3.688551-103.024153,10.24501-46.009639,9.480073-118.415138,48.817966-164.281757,18.441016-30.66551-20.309424,12.75807-68.343305,39.91026-79.911059c32.212799-13.723741,72.026579-3.504685,106.736732-6.147003c52.230596-3.976064,154.450764-47.459715,159.641028-89.473065c2.788051-22.568321-26.790438-36.532239-53.832435-40.297027-66.712859-9.287755-138.894203-1.825607-204.192017-19.124012-38.477878-10.193385-22.449204-66.152738,9.281458-77.179052C202.82374,-6.519584,308.91142,55.028095,392.933642,79.385358c32.624072,9.457415,97.636197-12.294022,85.5703-86.837121" fill="none" stroke="url(#eWSLi8rbaTl3-stroke)" stroke-width="2" stroke-linecap="round" stroke-dasharray="0.01,72"/><path id="eWSLi8rbaTl5" d="M26.29082,129.844858c0-15.465818,7.021983-31.880026,10.209597-47.127034c3.675859-17.58235-1.283208-51.871363,15.778476-65.56805c7.254969-5.824098,10.187693-4.438835,21.347344-4.781003c44.095413-1.352034,75.299062,40.167369,79.82052,67.617046c1.684616,10.227286-7.824934,56.033877,0,59.421039c46.395702,20.083237,166.202722-38.329998,186.557251,28.003022c16.764631,54.633952-138.807219,98.865783-184.700962,120.891082-12.842152,6.163195-58.920516,25.248961-51.048007,41.663027c12.518042,26.099919,135.02659,10.700867,161.497328.683004c11.657414-4.411755,21.731033-12.191202,30.628802-19.124012c4.358671-3.39612,8.747459-6.772835,12.994036-10.24501c1.034833-.846116,2.481064-3.848227,2.78444-2.731999c2.48778,9.153485-67.929412,74.694531-32.485091,79.911059c27.169751,3.998715,71.619907-44.941691,80.748659-56.006036c41.237613-49.981299,50.820725-106.474792,80.748659-159.139115c9.536583-16.781576,28.861241-53.792314,57.545025-59.421039c39.209864-7.694294,46.88703,27.19233,50.119857,47.81003c2.460285,15.690696,3.503162,32.738444,1.856289,48.493034-2.884946,27.598558-40.408551,109.494404-6.497018,129.770093c12.529584,7.491428,29.336909,7.793429,44.550989,6.147003c65.550531-7.093686,40.139814-69.395391,71.467201-99.035071c10.725607-10.147787,32.654965,15.333999,24.131784,34.150025" fill="none" stroke="url(#eWSLi8rbaTl5-stroke)" stroke-width="4" stroke-linecap="round" stroke-dasharray="0.01,72"/></svg>